<mxfile host="app.diagrams.net" modified="2024-02-08T05:37:01.984Z" agent="Mozilla/5.0 (Windows NT 10.0; Win64; x64) AppleWebKit/537.36 (KHTML, like Gecko) Chrome/121.0.0.0 Safari/537.36" version="23.1.2" etag="qD_blVD1AzujTq51M-C7" type="github">
  <diagram name="Page-1" id="9pKMw2WgdX4ORBJ16xlC">
    <mxGraphModel>
      <root>
        <mxCell id="0" />
        <mxCell id="1" parent="0" />
      </root>
    </mxGraphModel>
  </diagram>
</mxfile>
